/* XPM */
static char *result[] = {
/* columns rows colors chars-per-pixel */
"16 16 224 2 ",
"   c #270000",
".  c #240002",
"X  c #260003",
"o  c #2E0000",
"O  c #2F0002",
"+  c #320000",
"@  c #380100",
"#  c #3A0000",
"$  c #3A0200",
"%  c #3A0300",
"&  c #3E0400",
"*  c #3C0600",
"=  c #3B0800",
"-  c #3A0801",
";  c #3A0901",
":  c #3D0800",
">  c #3C0900",
",  c #3D0900",
"<  c #3E0800",
"1  c #3E0900",
"2  c #3D0B00",
"3  c #3E0A00",
"4  c #3B0D01",
"5  c #3B0E03",
"6  c #3E0F02",
"7  c #400C00",
"8  c #400E00",
"9  c #421000",
"0  c #421302",
"q  c #441400",
"w  c #491701",
"e  c #491C02",
"r  c #4F2102",
"t  c #4E2403",
"y  c #4F2403",
"u  c #512302",
"i  c #532302",
"p  c #512603",
"a  c #512703",
"s  c #542402",
"d  c #552502",
"f  c #542604",
"g  c #592802",
"h  c #5B2C03",
"j  c #5E2E03",
"k  c #5E2F04",
"l  c #5E3005",
"z  c #5E3208",
"x  c #5A3210",
"c  c #593412",
"v  c #5F3611",
"b  c #633203",
"n  c #603205",
"m  c #613307",
"M  c #693602",
"N  c #683404",
"B  c #693604",
"V  c #6C3905",
"C  c #6D3A05",
"Z  c #663808",
"A  c #6D3D09",
"S  c #6C3C0A",
"D  c #703D05",
"F  c #703E09",
"G  c #703F0A",
"H  c #603610",
"J  c #643C14",
"K  c #683F14",
"L  c #75430A",
"P  c #784309",
"I  c #6F4113",
"U  c #6E4215",
"Y  c #6F461B",
"T  c #744715",
"R  c #73491B",
"E  c #73491C",
"W  c #813F0E",
"Q  c #83410D",
"!  c #81400E",
"~  c #84420D",
"^  c #84420E",
"/  c #85430E",
"(  c #87450D",
")  c #88460E",
"_  c #8A490F",
"`  c #8B4A0F",
"'  c #97530B",
"]  c #9C570B",
"[  c #98570E",
"{  c #9D580B",
"}  c #9E580B",
"|  c #9E5A0B",
" . c #975916",
".. c #A05B0B",
"X. c #A65E0B",
"o. c #A05A0C",
"O. c #A05B0D",
"+. c #A25C0C",
"@. c #A35D0C",
"#. c #A35D0D",
"$. c #A35E0E",
"%. c #A45D0C",
"&. c #A55E0C",
"*. c #A55E0D",
"=. c #A55F0D",
"-. c #A65F0D",
";. c #A75F0D",
":. c #A65F0E",
">. c #A7600D",
",. c #A6600E",
"<. c #A8610D",
"1. c #A9610D",
"2. c #A8610E",
"3. c #A9610E",
"4. c #A9620E",
"5. c #A9620F",
"6. c #AA630E",
"7. c #AB630E",
"8. c #AD640D",
"9. c #B0670F",
"0. c #B2690F",
"q. c #A66311",
"w. c #A36117",
"e. c #AD6610",
"r. c #A0631A",
"t. c #A46218",
"y. c #AA6619",
"u. c #AB6619",
"i. c #AD6819",
"p. c #AE6819",
"a. c #B16910",
"s. c #B66C10",
"d. c #BA7012",
"f. c #BC7113",
"g. c #BD7113",
"h. c #BE7212",
"j. c #BF7213",
"k. c #BF7313",
"l. c #BB7114",
"z. c #BF7314",
"x. c #BC741C",
"c. c #BE761D",
"v. c #C17413",
"b. c #C27412",
"n. c #C47613",
"m. c #C17414",
"M. c #C27514",
"N. c #C37514",
"B. c #C57714",
"V. c #C57715",
"C. c #C77814",
"Z. c #C67815",
"A. c #C77915",
"S. c #C87915",
"D. c #C97A15",
"F. c #CA7C17",
"G. c #C3781B",
"H. c #C2781C",
"J. c #C57A1D",
"K. c #C67A1C",
"L. c #C77B1C",
"P. c #C67A1D",
"I. c #CA7E18",
"U. c #CD7F1D",
"Y. c #CD8019",
"T. c #D08319",
"R. c #D1831A",
"E. c #D2841A",
"W. c #D3841A",
"Q. c #D3851B",
"!. c #D58519",
"~. c #D4861A",
"^. c #D5861A",
"/. c #D5871A",
"(. c #D6861A",
"). c #D7871B",
"_. c #D2861F",
"`. c #D7881B",
"'. c #D8881B",
"]. c #D9891B",
"[. c #DA891B",
"{. c #DA8A1B",
"}. c #DC8B1B",
"|. c #DF8C1A",
" X c #DF8C1B",
".X c #DC8C1C",
"XX c #DD8C1C",
"oX c #DC8C1D",
"OX c #DF8D1C",
"+X c #DF8D1D",
"@X c #E08D1C",
"#X c #E28F1C",
"$X c #E3901D",
"%X c #E4911D",
"&X c #E5911E",
"*X c #D28620",
"=X c #D68B26",
"-X c #D88920",
";X c #DA8B21",
":X c #DC8D21",
">X c #DD8D21",
",X c #DC8D22",
"<X c #DD9027",
"1X c #DF9026",
"2X c #DF9128",
"3X c #E19123",
"4X c #E49323",
"5X c #E29328",
"6X c #CE9340",
"7X c #D19540",
"8X c #D59740",
"9X c #D69941",
"0X c #D79941",
"qX c #D49842",
"wX c #D89B43",
"eX c #DD9B40",
"rX c #DB9C43",
"tX c #DC9C41",
"yX c #DC9D43",
"uX c #DD9E43",
"iX c #DB9C44",
"pX c #E0A044",
"aX c #E2A144",
"sX c #E0A146",
/* pixels */
"A.C.n.;.M.D.B.X.q.V.D.M.q.6.b.%.",
"+X3X:X2.f.'.XXG.5.[.].Z.4.].>X,.",
"L.aXsXw.u n c.rXu.s.L Y.8.P.uXy.",
"1.2XpXr.4 + J wXt.r X m 0.i.yXJ.",
"-.@X:Xz , < l -X$.5 2 > f $.>XF.",
">.@X}.t * 3 j !.@.- 8 9 w | |.#X",
">.@XoXK $ 1 V h.O.c 3 & # b ,X&X",
">. X4X9XY D R.K.p.7XE H k R tX4X",
">.OX%X<X0X_.U.eXH.1XiXqX=X8X5X$X",
">.OX/.F  .S l.*XG d.x.U [ T .X%X",
"1.`.Z . ;   d p O i e o 7 y ~.%X",
"<.^.Z = 6 x 0 % s : @ q d , C {.",
"%.S.E.a I 6Xv M a.C h g e.V B k.",
"o.N.).A Q.;XP I.9.(.T.N ` W.(.:.",
"~ *.g._ m.n...=.+.v.7.' Q 3.z.) ",
"W } o./ #.j.&.] ( o.} ^ ! { o.! "
};
