/* XPM */
static char *result[] = {
/* columns rows colors chars-per-pixel */
"16 16 124 2 ",
"   c #4D3E21",
".  c #4D3F21",
"X  c #514123",
"o  c #514223",
"O  c #514224",
"+  c #524224",
"@  c #534324",
"#  c #534325",
"$  c #544325",
"%  c #554325",
"&  c #544424",
"*  c #554525",
"=  c #554426",
"-  c #564626",
";  c #574626",
":  c #574726",
">  c #5B4A28",
",  c #5D4B29",
"<  c #5F4C2A",
"1  c #614D2B",
"2  c #62502A",
"3  c #63512A",
"4  c #64512A",
"5  c #65512B",
"6  c #64522B",
"7  c #65522B",
"8  c #66532B",
"9  c #66522C",
"0  c #66532C",
"q  c #67532C",
"w  c #66542C",
"e  c #67542C",
"r  c #67552C",
"t  c #68542D",
"y  c #68552D",
"u  c #69552D",
"i  c #6A562D",
"p  c #6A552E",
"a  c #6B562E",
"s  c #6B572E",
"d  c #6F5931",
"f  c #755E33",
"g  c #7A6235",
"h  c #7B6337",
"j  c #7D6437",
"k  c #7D6537",
"l  c #7E6537",
"z  c #7E6438",
"x  c #7E6538",
"c  c #806638",
"v  c #826A3C",
"b  c #846A3D",
"n  c #846B3E",
"m  c #856C3E",
"M  c #866C3E",
"N  c #866D3E",
"B  c #876D3F",
"V  c #886D3F",
"C  c #886E3F",
"Z  c #886F40",
"A  c #896F40",
"S  c #8A6F40",
"D  c #8A6F41",
"F  c #8A7040",
"G  c #8B7041",
"H  c #8B7141",
"J  c #8C7041",
"K  c #8C7141",
"L  c #8C7042",
"P  c #8C7142",
"I  c #8E7242",
"U  c #8F7342",
"Y  c #8F7343",
"T  c #907143",
"R  c #917443",
"E  c #907144",
"W  c #917144",
"Q  c #917244",
"!  c #927245",
"~  c #937345",
"^  c #947345",
"/  c #947346",
"(  c #947445",
")  c #947446",
"_  c #957446",
"`  c #957546",
"'  c #967546",
"]  c #967547",
"[  c #977647",
"{  c #987747",
"}  c #977648",
"|  c #987648",
" . c #987748",
".. c #997748",
"X. c #9A7748",
"o. c #997848",
"O. c #997849",
"+. c #9A7848",
"@. c #9A7849",
"#. c #9B7849",
"$. c #9B7949",
"%. c #9B794A",
"&. c #9C7949",
"*. c #9C7A49",
"=. c #9C794A",
"-. c #9D7A4A",
";. c #9E7B4A",
":. c #9E7B4B",
">. c #9F7C4B",
",. c #A07C4B",
"<. c #A17D4C",
"1. c #AB864E",
"2. c #AC874E",
"3. c #AD874E",
"4. c #AE884F",
"5. c #AF894F",
"6. c #AE8850",
"7. c #AF8950",
"8. c #B08950",
"9. c #B08A50",
"0. c #B18A51",
"q. c #B28B51",
"w. c #B38C51",
"e. c None",
/* pixels */
". + = @ @ = = $ + = @ @ = # $ . ",
"2 b W m m ! / ] G E m m W C W 5 ",
"& f , 0 e a c $.] 1 7 e s k C - ",
"q T 0 e.e.e.3.-.D 4 e.e.e.2.K 3 ",
"e B e e.e.e.q.;.A 8 e.e.e.q.U 8 ",
"7 v y e.e.e.8.-.A e e.e.e.5.' 7 ",
"o p g 1.<.4.>.#.F j 3.q.7.R d X ",
"0 ~ Y -.=.*.Y O.Y  .:.;.:.@.~ 9 ",
"t [ } ] G Z F @. .L _ J ` P G e ",
"e V < 0 8 r l o.L > 9 w i x _ u ",
"q Q 7 e.e.e.1.:.` 9 e.e.e.1...9 ",
"; n : e.e.e.<.=.G 0 e.e.e.,.L * ",
"7 N e e.e.e.6.-.A e e.e.e.9.{ 9 ",
"u ( z $.0.9.>.%.H h &.0.w.9.I 8 ",
"6 B ) | X. .G _ S ^ | X.+. .M 4 ",
"  O = % $ # + $ + = % $ $ $ O   "
};
