/* XPM */
static char *result[] = {
/* columns rows colors chars-per-pixel */
"16 16 4 1 ",
"  c #F800F8",
". c #F900F9",
"X c black",
"o c #FB00FB",
/* pixels */
"      . XXXXXXXX",
"      . XXXXXXXX",
"      . XXXXXXXX",
"      . XXXXXXXX",
"      . XXXXXXXX",
"      . XXXXXXXX",
"......o XXXXXXXX",
"        XXXXXXXX",
"XXXXXXXX        ",
"XXXXXXXX o......",
"XXXXXXXX .      ",
"XXXXXXXX .      ",
"XXXXXXXX .      ",
"XXXXXXXX .      ",
"XXXXXXXX .      ",
"XXXXXXXX .      "
};
