/* XPM */
static char *_4fa629af1cc4e8ec11da78e7d6ab90fG3KlcWLxTB86Vzgl[] = {
/* columns rows colors chars-per-pixel */
"16 16 42 1 ",
"  c #2A1D0D",
". c #281C0B",
"X c #342512",
"o c #9C694C",
"O c #AA7D66",
"+ c #805334",
"@ c #815339",
"# c #7A4E33",
"$ c #2B1E0D",
"% c #2C1E0E",
"& c #AC765A",
"* c white",
"= c #A26A47",
"- c #8F5E3E",
"; c #261A0A",
": c #3F2A15",
"> c #BD8E74",
", c #BB8972",
"< c #523D89",
"1 c #BE886C",
"2 c #774235",
"3 c #241808",
"4 c #422A12",
"5 c #BD8B72",
"6 c #9C725C",
"7 c #6A4030",
"8 c #332411",
"9 c #C69680",
"0 c #AD806D",
"q c #B57B67",
"w c #2F1F0F",
"e c #BD8E72",
"r c #B78272",
"t c #B6896C",
"y c #B4846D",
"u c #B37B62",
"i c #965F40",
"p c #6D432A",
"a c #2F200D",
"s c #9C6346",
"d c #905E43",
"f c #6F452C",
/* pixels */
"  ..XXooOO++@@##",
"  ..XXooOO++@@##",
"$$%%&&oo**==--@@",
"$$%%&&oo**==--@@",
";;::>>,,<<1122@@",
";;::>>,,<<1122@@",
"33445566,,7722##",
"33445566,,7722##",
"..889900qq7722@@",
"..889900qq7722@@",
"ww$$eeOO<<rr22@@",
"ww$$eeOO<<rr22@@",
"$$$$ttyy**uuiipp",
"$$$$ttyy**uuiipp",
"aa$$$$OOyyssddff",
"aa$$$$OOyyssddff"
};
