/* XPM */
static char *result[] = {
/* columns rows colors chars-per-pixel */
"16 16 233 2 ",
"   c #416720",
".  c #406721",
"X  c #426820",
"o  c #436821",
"O  c #426921",
"+  c #406A20",
"@  c #436A21",
"#  c #426B21",
"$  c #426A22",
"%  c #456821",
"&  c #446B21",
"*  c #476A23",
"=  c #426C22",
"-  c #436D23",
";  c #446C21",
":  c #446F21",
">  c #456C22",
",  c #446D22",
"<  c #466D22",
"1  c #466D23",
"2  c #446E23",
"3  c #446F23",
"4  c #456F23",
"5  c #466E22",
"6  c #476E22",
"7  c #466F22",
"8  c #476F22",
"9  c #476E23",
"0  c #476F23",
"q  c #446F24",
"w  c #456F24",
"e  c #466F24",
"r  c #496D23",
"t  c #486F23",
"y  c #486C24",
"u  c #496E24",
"i  c #486F24",
"p  c #437021",
"a  c #447022",
"s  c #457023",
"d  c #467022",
"f  c #477022",
"g  c #467023",
"h  c #477023",
"j  c #477123",
"k  c #477222",
"l  c #467523",
"z  c #477523",
"x  c #457124",
"c  c #477124",
"v  c #477225",
"b  c #467325",
"n  c #467126",
"m  c #477425",
"M  c #477426",
"N  c #477526",
"B  c #487123",
"V  c #4A7223",
"C  c #497024",
"Z  c #4A7024",
"A  c #4B7024",
"S  c #487324",
"D  c #487225",
"F  c #4C7224",
"G  c #487425",
"H  c #4A7425",
"J  c #4A7525",
"K  c #487625",
"L  c #4A7625",
"P  c #4B7725",
"I  c #4A7526",
"U  c #487727",
"Y  c #497727",
"T  c #4B7626",
"R  c #4A7727",
"E  c #4C7425",
"W  c #4D7525",
"Q  c #4D7624",
"!  c #4E7625",
"~  c #4C7426",
"^  c #4C7526",
"/  c #4C7626",
"(  c #4D7727",
")  c #4F7726",
"_  c #4E7727",
"`  c #487825",
"'  c #4B7824",
"]  c #4A7825",
"[  c #4B7925",
"{  c #4A7B24",
"}  c #497826",
"|  c #497927",
" . c #4A7826",
".. c #4B7926",
"X. c #4B7827",
"o. c #4B7B26",
"O. c #4B7A27",
"+. c #4C7824",
"@. c #4E7824",
"#. c #4D7A25",
"$. c #4C7826",
"%. c #4E7827",
"&. c #4D7B26",
"*. c #4C7B27",
"=. c #4F7A27",
"-. c #4E7B27",
";. c #4F7B27",
":. c #4B7C25",
">. c #4D7D25",
",. c #4F7D25",
"<. c #4C7C27",
"1. c #4D7C27",
"2. c #4F7C26",
"3. c #4C7F26",
"4. c #4C7E27",
"5. c #4D7E27",
"6. c #4F7F26",
"7. c #4D7828",
"8. c #4D7928",
"9. c #4F7928",
"0. c #4C7B28",
"q. c #4F7B29",
"w. c #4A7C28",
"e. c #4D7D28",
"r. c #4D7D29",
"t. c #4E7C28",
"y. c #4C7E2A",
"u. c #4D7F2A",
"i. c #507D25",
"p. c #507C26",
"a. c #527D27",
"s. c #507928",
"d. c #507D28",
"f. c #527D29",
"g. c #507E28",
"h. c #527E28",
"j. c #537F28",
"k. c #517F2A",
"l. c #547D29",
"z. c #4E8027",
"x. c #4D8327",
"c. c #4F8227",
"v. c #4D8228",
"b. c #4E8229",
"n. c #4F842B",
"m. c #508127",
"M. c #538327",
"N. c #548527",
"B. c #518028",
"V. c #508029",
"C. c #538028",
"Z. c #538128",
"A. c #528228",
"S. c #528329",
"D. c #50802A",
"F. c #51802A",
"G. c #51812B",
"H. c #52802A",
"J. c #53802B",
"K. c #51832A",
"L. c #51822B",
"P. c #53832B",
"I. c #558128",
"U. c #548029",
"Y. c #548228",
"T. c #558229",
"R. c #568229",
"E. c #54812A",
"W. c #55822A",
"Q. c #54822B",
"!. c #56822A",
"~. c #508429",
"^. c #508529",
"/. c #528429",
"(. c #538529",
"). c #518729",
"_. c #528629",
"`. c #538729",
"'. c #51852A",
"]. c #50842B",
"[. c #50852B",
"{. c #53852B",
"}. c #52862A",
"|. c #53872A",
" X c #52872B",
".X c #568428",
"XX c #558629",
"oX c #558729",
"OX c #57852A",
"+X c #56842B",
"@X c #57852B",
"#X c #56872A",
"$X c #56862B",
"%X c #52872C",
"&X c #53872C",
"*X c #54872C",
"=X c #56872D",
"-X c #58872A",
";X c #538829",
":X c #53882A",
">X c #538A2A",
",X c #548A29",
"<X c #558B29",
"1X c #55882A",
"2X c #55892A",
"3X c #56882A",
"4X c #56882B",
"5X c #57892B",
"6X c #558A2B",
"7X c #558F2B",
"8X c #548A2C",
"9X c #568A2C",
"0X c #558B2E",
"qX c #568B2E",
"wX c #588829",
"eX c #5A8829",
"rX c #588A29",
"tX c #59882A",
"yX c #58892A",
"uX c #5A882B",
"iX c #598B2A",
"pX c #5A8B2A",
"aX c #58892C",
"sX c #598B2D",
"dX c #5B892E",
"fX c #598B2E",
"gX c #598D2C",
"hX c #5B8C2C",
"jX c #5A8C2D",
"kX c #598E2C",
"lX c #5A8C2F",
"zX c #5C8E2C",
"xX c #60932E",
/* pixels */
"!.P S.s.! %.XX# b  X{.9.oXa 5XF ",
"] D.iX> A B.V.) =.&X=X%.hXg W C.",
"J n [.^.% & Q.Q .XJ.G.f.gXtX, ;.",
"K.Y L P.Q S 1 1.f $ ( ;X>XH.uXr ",
"u s C 3XwX(.x.o.aXU.fX0.`.$.lX8.",
"i.V O z |.O.2 b.+Xt }._...z.>.R ",
"7X| m , _ Z.rX(.M - 3.k 2 U @ o ",
"} y.P 7.9 pXxX@Xv ,.H j.<.].c < ",
". r.&X:X2X-XzXq.N ` q sX~.h R.h.",
"~ I.d ,X).pX4X*X#.x w.0 : 6.T ^ ",
"N.a.t./.s T.A.dXyXc.G W.F.2 ' Z ",
"p 3 #Xm.X F OX-.X.; K j n.*.@._ ",
" .D 4 v.e.Z.k.= p 7 e L.g.5   4.",
"$XE.O V.M. X/ '.&.6 l.2.[ ].w -.",
"i eX9 9 8 5.qXkXY.B * d.l 1X%X8X",
"jXp.S y 9X0Xu.g.6X+ E <X{ :.+.I "
};
