/* XPM */
static char *result[] = {
/* columns rows colors chars-per-pixel */
"16 16 204 2 ",
"   c #416720",
".  c #406721",
"X  c #436821",
"o  c #426921",
"O  c #406A20",
"+  c #436A21",
"@  c #426B21",
"#  c #426A22",
"$  c #456821",
"%  c #446B21",
"&  c #476A23",
"*  c #436D23",
"=  c #446C21",
"-  c #446F21",
";  c #456C22",
":  c #446D22",
">  c #466D22",
",  c #466D23",
"<  c #446E23",
"1  c #446F23",
"2  c #456F23",
"3  c #466E22",
"4  c #466F22",
"5  c #476F22",
"6  c #476E23",
"7  c #476F23",
"8  c #456F24",
"9  c #496D23",
"0  c #486F23",
"q  c #486C24",
"w  c #496E24",
"e  c #486F24",
"r  c #437021",
"t  c #447022",
"y  c #457023",
"u  c #467022",
"i  c #477022",
"p  c #467023",
"a  c #477023",
"s  c #477222",
"d  c #467523",
"f  c #477523",
"g  c #477124",
"h  c #467325",
"j  c #467126",
"k  c #477425",
"l  c #477426",
"z  c #477526",
"x  c #487123",
"c  c #4A7223",
"v  c #497024",
"b  c #4A7024",
"n  c #4B7024",
"m  c #487324",
"M  c #487225",
"N  c #4C7224",
"B  c #487425",
"V  c #4A7425",
"C  c #4A7525",
"Z  c #4A7625",
"A  c #4B7725",
"S  c #4A7526",
"D  c #487727",
"F  c #497727",
"G  c #4B7626",
"H  c #4A7727",
"J  c #4C7425",
"K  c #4D7525",
"L  c #4D7624",
"P  c #4E7625",
"I  c #4C7426",
"U  c #4C7526",
"Y  c #4D7727",
"T  c #4F7726",
"R  c #4E7727",
"E  c #4B7824",
"W  c #4A7825",
"Q  c #4B7925",
"!  c #4A7B24",
"~  c #497826",
"^  c #497927",
"/  c #4A7826",
"(  c #4B7926",
")  c #4B7B26",
"_  c #4B7A27",
"`  c #4C7824",
"'  c #4E7824",
"]  c #4C7826",
"[  c #4E7827",
"{  c #4C7B27",
"}  c #4F7A27",
"|  c #4E7B27",
" . c #4F7B27",
".. c #4B7C25",
"X. c #4D7D25",
"o. c #4F7D25",
"O. c #4C7C27",
"+. c #4D7C27",
"@. c #4F7C26",
"#. c #4C7F26",
"$. c #4C7E27",
"%. c #4D7E27",
"&. c #4F7F26",
"*. c #4D7828",
"=. c #4D7928",
"-. c #4F7928",
";. c #4C7B28",
":. c #4D7D28",
">. c #4D7D29",
",. c #4E7C28",
"<. c #4C7E2A",
"1. c #4D7F2A",
"2. c #507D25",
"3. c #507C26",
"4. c #527D27",
"5. c #507928",
"6. c #507D28",
"7. c #527D29",
"8. c #507E28",
"9. c #527E28",
"0. c #537F28",
"q. c #547D29",
"w. c #4E8027",
"e. c #4D8327",
"r. c #4D8228",
"t. c #4E8229",
"y. c #4F842B",
"u. c #4A8F28",
"i. c #508127",
"p. c #538327",
"a. c #548527",
"s. c #518028",
"d. c #508029",
"f. c #538028",
"g. c #538128",
"h. c #528329",
"j. c #50802A",
"k. c #51802A",
"l. c #51812B",
"z. c #52802A",
"x. c #53802B",
"c. c #51832A",
"v. c #53832B",
"b. c #558128",
"n. c #548029",
"m. c #558229",
"M. c #568229",
"N. c #54812A",
"B. c #55822A",
"V. c #54822B",
"C. c #56822A",
"Z. c #508429",
"A. c #508529",
"S. c #538529",
"D. c #528629",
"F. c #538729",
"G. c #50842B",
"H. c #50852B",
"J. c #53852B",
"K. c #52862A",
"L. c #53872A",
"P. c #52872B",
"I. c #568428",
"U. c #558629",
"Y. c #558729",
"T. c #56842B",
"R. c #56872A",
"E. c #56862B",
"W. c #52872C",
"Q. c #53872C",
"!. c #56872D",
"~. c #538829",
"^. c #53882A",
"/. c #538A2A",
"(. c #558B29",
"). c #55882A",
"_. c #55892A",
"`. c #56882A",
"'. c #57892B",
"]. c #558A2B",
"[. c #558F2B",
"{. c #548A2C",
"}. c #568A2C",
"|. c #558B2E",
" X c #568B2E",
".X c #588829",
"XX c #5A8829",
"oX c #588A29",
"OX c #59882A",
"+X c #5A882B",
"@X c #598B2A",
"#X c #5A8B2A",
"$X c #58892C",
"%X c #598B2D",
"&X c #598B2E",
"*X c #598D2C",
"=X c #5B8C2C",
"-X c #5A8C2D",
";X c #5A8C2F",
":X c #529A2E",
">X c #55AB2D",
",X c #FFEC4F",
"<X c #D6E8E8",
"1X c gray97",
/* pixels */
"C.A h.5.P [ U.@ h P.J.-.Y.t '.N ",
"W j.@X; n s.d.T } Q.!.[ =Xp K f.",
"C j H.A.$ % V.L I.x.l.7.*XOX:  .",
"c.F Z v.L m , +.i # Y ~./.z.+X9 ",
"w y v `..XS.e.) $Xn.&X;.F.] ;X=.",
"2.c o f L._ < t.T.0 K.D.( w.X.H ",
"[.^ k : R g.oX<Xl * #.s < D + X ",
"~ <.A *.6 ,X1X,X<Xo.V 0.O.G.g > ",
". >.Q.^._.<X:X>Xz 1X,X%XZ.a M.9.",
"I b.u ,X1X#X<X1X1X>X<X7 - &.G U ",
"a.4.,.1X>Xm.u.<X,X:XB B.k.< E b ",
"r 1 R.i.u.>X:X| :X= 1X,Xy.{ ' R ",
"/ M 2 r.:.1X,X:X>X4 >X<X8.3   $.",
"E.N.o d.p.1X<X>X>X>Xq.@.Q G.8 | ",
"e XX6 6 5 %. X>X:Xx & 6.d ).W.{.",
"-X3.m q }.|.1.u.].O J (.! ..` S "
};
