/* XPM */
static char *d300b383dd684aaad0541c4858f78527rZqudT6T90lMn5Os[] = {
/* columns rows colors chars-per-pixel */
"16 16 42 1 ",
"  c #6F452C",
". c #905E43",
"X c #9C6346",
"o c #B4846D",
"O c #AA7D66",
"+ c #2B1E0D",
"@ c #2F200D",
"# c #6D432A",
"$ c #965F40",
"% c #B37B62",
"& c white",
"* c #B6896C",
"= c #815339",
"- c #774235",
"; c #B78272",
": c #523D89",
"> c #BD8E72",
", c #2F1F0F",
"< c #6A4030",
"1 c #B57B67",
"2 c #AD806D",
"3 c #C69680",
"4 c #332411",
"5 c #281C0B",
"6 c #7A4E33",
"7 c #BB8972",
"8 c #9C725C",
"9 c #BD8B72",
"0 c #422A12",
"q c #241808",
"w c #BE886C",
"e c #BD8E74",
"r c #3F2A15",
"t c #261A0A",
"y c #8F5E3E",
"u c #A26A47",
"i c #9C694C",
"p c #AC765A",
"a c #2C1E0E",
"s c #805334",
"d c #342512",
"f c #2A1D0D",
/* pixels */
"  ..XXooOO++++@@",
"  ..XXooOO++++@@",
"##$$%%&&oo**++++",
"##$$%%&&oo**++++",
"==--;;::OO>>++,,",
"==--;;::OO>>++,,",
"==--<<1122334455",
"==--<<1122334455",
"66--<<77889900qq",
"66--<<77889900qq",
"==--ww::77eerrtt",
"==--ww::77eerrtt",
"==yyuu&&iippaa++",
"==yyuu&&iippaa++",
"66==ssOOiidd55ff",
"66==ssOOiidd55ff"
};
