/* XPM */
static char *d97f33c1687c4442ad463edc13e44ab2tvsP0Qg4za6oPjKT[] = {
/* columns rows colors chars-per-pixel */
"16 16 42 1 ",
"  c #7A4E33",
". c #815339",
"X c #6D432A",
"o c #6F452C",
"O c #8F5E3E",
"+ c #774235",
"@ c #965F40",
"# c #905E43",
"$ c #805334",
"% c #A26A47",
"& c #BE886C",
"* c #6A4030",
"= c #B78272",
"- c #B37B62",
"; c #9C6346",
": c #AA7D66",
"> c white",
", c #523D89",
"< c #BB8972",
"1 c #B57B67",
"2 c #B4846D",
"3 c #9C694C",
"4 c #9C725C",
"5 c #AD806D",
"6 c #342512",
"7 c #AC765A",
"8 c #BD8E74",
"9 c #BD8B72",
"0 c #C69680",
"q c #BD8E72",
"w c #B6896C",
"e c #2B1E0D",
"r c #281C0B",
"t c #2C1E0E",
"y c #3F2A15",
"u c #422A12",
"i c #332411",
"p c #2A1D0D",
"a c #261A0A",
"s c #241808",
"d c #2F1F0F",
"f c #2F200D",
/* pixels */
"  ....  ....XXoo",
"  ....  ....XXoo",
"..OO++++++++@@##",
"..OO++++++++@@##",
"$$%%&&****==--;;",
"$$%%&&****==--;;",
"::>>,,<<11,,>>22",
"::>>,,<<11,,>>22",
"3333<<4455::22::",
"3333<<4455::22::",
"6677889900qqwwee",
"6677889900qqwwee",
"rrttyyuuiieeeeee",
"rrttyyuuiieeeeee",
"ppeeaassrrddeeff",
"ppeeaassrrddeeff"
};
