/* XPM */
static char *result[] = {
/* columns rows colors chars-per-pixel */
"16 16 225 2 ",
"   c #525E38",
".  c #525E39",
"X  c #535E3D",
"o  c #545E3E",
"O  c #55603F",
"+  c #57643C",
"@  c #596D3D",
"#  c #555F42",
"$  c #5A5E56",
"%  c #5A5B59",
"&  c #5B595B",
"*  c #5B5B5A",
"=  c #5D5D5B",
"-  c #5E5D5F",
";  c #576044",
":  c #576144",
">  c #5A6B42",
",  c #5A6C41",
"<  c #5A6C43",
"1  c #5A6B46",
"2  c #5C6D44",
"3  c #5D6F45",
"4  c #5C6549",
"5  c #5D664B",
"6  c #5D654D",
"7  c #5C6C48",
"8  c #5E6F48",
"9  c #5D6C4A",
"0  c #5E6D4C",
"q  c #5F6E4C",
"w  c #5F7049",
"e  c #5F6651",
"r  c #5C6056",
"t  c #5F615B",
"y  c #606F4F",
"u  c #617740",
"i  c #607641",
"p  c #627646",
"a  c #637A42",
"s  c #647A43",
"d  c #637649",
"f  c #63724F",
"g  c #63744C",
"h  c #65794B",
"j  c #65784C",
"k  c #66794C",
"l  c #66794D",
"z  c #687B4E",
"x  c #687A4F",
"c  c #687B4F",
"v  c #697D4C",
"b  c #6A7D4D",
"n  c #637053",
"m  c #667750",
"M  c #647254",
"N  c #667356",
"B  c #687952",
"V  c #6B7D51",
"C  c #6C7E53",
"Z  c #6A7B55",
"A  c #6D7E55",
"S  c #6D7E56",
"D  c #68735B",
"F  c #6C7B58",
"G  c #615F61",
"H  c #616061",
"J  c #626361",
"K  c #626063",
"L  c #636163",
"P  c #636462",
"I  c #646463",
"U  c #646264",
"Y  c #656365",
"T  c #656465",
"R  c #656960",
"E  c #656861",
"W  c #656862",
"Q  c #676964",
"!  c #676A64",
"~  c #686C66",
"^  c #696D67",
"/  c #696968",
"(  c #6B6A6B",
")  c #6A6C69",
"_  c #6B6D69",
"`  c #6A6E69",
"'  c #6A6D6A",
"]  c #6B6D6B",
"[  c #6D6E6D",
"{  c #6D706C",
"}  c #6F716F",
"|  c #71726D",
" . c #727370",
".. c #737371",
"X. c #737372",
"o. c #747671",
"O. c #757573",
"+. c #757672",
"@. c #767772",
"#. c #747375",
"$. c #757574",
"%. c #757475",
"&. c #767675",
"*. c #777675",
"=. c #767576",
"-. c #767577",
";. c #777577",
":. c #777776",
">. c #787777",
",. c #767872",
"<. c #777973",
"1. c #787877",
"2. c #787977",
"3. c #797B77",
"4. c #787C74",
"5. c #787678",
"6. c #797779",
"7. c #797879",
"8. c #797979",
"9. c #797A79",
"0. c #7A7A78",
"q. c #7A787A",
"w. c #7A797B",
"e. c #7B7A7B",
"r. c #7B7D78",
"t. c #7B7C7A",
"y. c #7C7E79",
"u. c #7C7C7B",
"i. c #7D7C7B",
"p. c #7D7D7B",
"a. c #7D7E7A",
"s. c #7D7E7B",
"d. c #7D7B7D",
"f. c gray49",
"g. c #7D7E7C",
"h. c #7E7D7E",
"j. c #7E7E7E",
"k. c #7E7F7E",
"l. c #7E7E7F",
"z. c #7F7E7F",
"x. c gray50",
"c. c #6E824C",
"v. c #6F824E",
"b. c #70824F",
"n. c #71844F",
"m. c #718450",
"M. c #748751",
"N. c #748752",
"B. c #758A50",
"V. c #768A52",
"C. c #778C52",
"Z. c #768A54",
"A. c #788B56",
"S. c #798E55",
"D. c #7A8E55",
"F. c #738359",
"G. c #74835A",
"H. c #758658",
"J. c #76865B",
"K. c #78875D",
"L. c #798B5A",
"P. c #798B5B",
"I. c #7A8B5D",
"U. c #7C8D5E",
"Y. c #778560",
"T. c #788560",
"R. c #788465",
"E. c #7A8B60",
"W. c #7E8F62",
"Q. c #7B8075",
"!. c #7D807A",
"~. c #7E807A",
"^. c #7E817A",
"/. c #7F807D",
"(. c #7F807E",
"). c #80817D",
"_. c #83857E",
"`. c #7F7F80",
"'. c #807F80",
"]. c #818080",
"[. c #818081",
"{. c #828181",
"}. c #818182",
"|. c #828182",
" X c #828183",
".X c gray51",
"XX c #848481",
"oX c #848582",
"OX c #858582",
"+X c #848384",
"@X c #858385",
"#X c #868585",
"$X c #868684",
"%X c #868685",
"&X c #878685",
"*X c #868586",
"=X c #878587",
"-X c #878786",
";X c #868981",
":X c #878883",
">X c #878884",
",X c #878688",
"<X c #888789",
"1X c #898789",
"2X c #898988",
"3X c #8A8988",
"4X c #8A888A",
"5X c #8C8A8C",
"6X c #8C8A8D",
"7X c #8D8B8D",
"8X c #8D8B8E",
"9X c #8E8C8E",
"0X c #949392",
"qX c #949491",
"wX c #949194",
"eX c #959395",
"rX c #969395",
"tX c #969396",
"yX c #959494",
"uX c #969495",
"iX c #979496",
"pX c #989598",
"aX c #999699",
"sX c #9A979A",
"dX c #9B989B",
/* pixels */
"9XyXA b.N.S.D.n.S qXW.U.>XH.B.+ ",
"aX*XXXg V.M.C.v oX.X^.).y.c a < ",
"dX4Xj.f v.b m.x k.(.R.oXD 4.d $ ",
"sX{.1.3.N _.G.<.`.$X~.e.u.&.y % ",
"aX0.m @.>.s.Z p.y.V F.r.&.} 2.= ",
"4X*.3 j t.6.&.+.z c.s 8 n t.>.: ",
";.' 1 , ` #.) 0 i u @ > | 5.9.9 ",
"Q E r 6 / ( H % t 5 4 4 e W ! R ",
"Z.L.Y.0XpXeX@XL =XrXuXiX0XT.P.A.",
"C :X2X7X5X+Xf.T tX8X+X6X5X3X;XJ.",
"&X|. X<X].s.%.Y tX|.w.=Xd.%XF !.",
"}.1X1X[.s.B ^ U wXi.a.e.`.g.M #X",
"z.'.x.l.,.h  .L -XK.E./.,Xx.:.q.",
"5.-.{ o.k l O.K OXI.Q.7.7.j.h.5.",
"] ~ 7 2 p o.8.G X.w q ..[ =.$._ ",
"J # .   O P - & * X   ; P I ; o "
};
